<svg xmlns="http://www.w3.org/2000/svg" xmlns:xlink="http://www.w3.org/1999/xlink" width="209" height="76" viewBox="0 0 209 76">
  <defs>
    <style>
      .cls-1, .cls-2 {
        fill: #6563eb;
      }

      .cls-1 {
        font-size: 26px;
        font-family: Pacifico-Regular, Pacifico;
      }

      .cls-3 {
        filter: url(#Path_172);
      }

      .cls-4 {
        filter: url(#OfflineSumo);
      }
    </style>
    <filter id="OfflineSumo" x="40" y="0" width="169" height="76" filterUnits="userSpaceOnUse">
      <feOffset dy="3" input="SourceAlpha"/>
      <feGaussianBlur stdDeviation="5" result="blur"/>
      <feFlood flood-color="#6563eb" flood-opacity="0.161"/>
      <feComposite operator="in" in2="blur"/>
      <feComposite in="SourceGraphic"/>
    </filter>
    <filter id="Path_172" x="0" y="5" width="60" height="65.295" filterUnits="userSpaceOnUse">
      <feOffset dy="3" input="SourceAlpha"/>
      <feGaussianBlur stdDeviation="5" result="blur-2"/>
      <feFlood flood-color="#eb6363" flood-opacity="0.161"/>
      <feComposite operator="in" in2="blur-2"/>
      <feComposite in="SourceGraphic"/>
    </filter>
  </defs>
  <g id="Logo" transform="translate(15 12)">
    <g class="cls-4" transform="matrix(1, 0, 0, 1, -15, -12)">
      <text id="OfflineSumo-2" data-name="OfflineSumo" class="cls-1" transform="translate(55 46)"><tspan x="0" y="0">OfflineSumo</tspan></text>
    </g>
    <g id="sumo-fighter" transform="translate(-3.816 5)">
      <g class="cls-3" transform="matrix(1, 0, 0, 1, -11.18, -17)">
        <path id="Path_172-2" data-name="Path 172" class="cls-2" d="M32.125,11.545a10.387,10.387,0,0,0-2.39-1.353c-1.925-.724-3.883-1.366-5.829-2.024a1.363,1.363,0,0,1-.834-1.13,4.76,4.76,0,0,0-2.213-3.523c-.513-.341-.516-.612-.263-1.063.161-.287.309-.579.454-.871A.916.916,0,0,0,20.693.352,5.285,5.285,0,0,0,16.93.342a.963.963,0,0,0-.388,1.245l.323.729a1.157,1.157,0,0,1-.355,1.3,4.835,4.835,0,0,0-1.868,3.472,1.3,1.3,0,0,1-.837,1.112c-1.678.522-3.339,1.009-4.949,1.618A12.028,12.028,0,0,0,5.6,11.556a5.088,5.088,0,0,0-1.66,2.4A8.316,8.316,0,0,0,4.9,19.217a.649.649,0,0,0,1.075.071,7.524,7.524,0,0,1,.943-.913,2.033,2.033,0,0,0,.625-2.5,5.761,5.761,0,0,0-.378-.856c-.216-.42-.066-.742.332-.716.255.016.489.029.722.028.733,0,1.753-.324,2.123.018.441.405.388,1.368.418,2.094a1.549,1.549,0,0,1-.426,1.087c-1,.919-2.1,1.729-3.1,2.642-1.649,1.508-2.5,3.3-1.72,5.506.675,1.9,1.407,3.782,2.151,5.659.732,1.848.426,2.569-1.509,3.387a.977.977,0,0,0-.211.137.173.173,0,0,0-.025.285c.074.059.133.1.189.1,1.569-.108,3.143-.184,4.7-.383.446-.057.843-.386.335-1.014a2.648,2.648,0,0,1-.534-1.625c.044-1.6.277-3.2.334-4.8a3.771,3.771,0,0,0-.122-.982,1.011,1.011,0,0,1,.622-1.138l3.2-1.217c.454-.172.757.063.678.525-.072.423-.144.841-.218,1.258-.207,1.161.352,1.927,1.428,1.933a13.6,13.6,0,0,0,7.6-2.036,2.839,2.839,0,0,1,1.9-.512,1.069,1.069,0,0,1,.851,1.051c-.009.967-.026,1.905.016,2.841.065,1.523.567,3.082-.26,4.6-.224.416-.193.85.168,1.032a2.115,2.115,0,0,0,.687.243c1.205.146,2.423.2,3.637.273a1.737,1.737,0,0,0,.356-.025c.194-.031.366-.12.382-.193s-.11-.2-.285-.288c-.105-.051-.211-.1-.319-.147-1.5-.632-1.911-1.582-1.315-3.035A42.362,42.362,0,0,0,31.6,27.463a10.414,10.414,0,0,0,.7-4.226c-.316-2.084-2-3.327-3.614-4.632a.539.539,0,0,0-.922.26,10.854,10.854,0,0,1-10.515,7.62.781.781,0,0,1-.79-.858,6.446,6.446,0,0,1,.136-.8c.162-.651-.082-.941-.67-1.3a13.77,13.77,0,0,1-2.91-2.244,6.805,6.805,0,0,1-1.768-2.7c-.129-.453.1-.533.412-.177,2.3,2.578,5.179,3.97,8.715,2.792,3.126-1.042,6.167-2.536,6.833-6.065a1.04,1.04,0,0,1,.993-.841h1.582a.62.62,0,0,1,.655.819,4.193,4.193,0,0,0-.35,2.323,5.177,5.177,0,0,0,1.684,1.953.614.614,0,0,0,1.024-.164,11.823,11.823,0,0,0,.98-3.754A3.927,3.927,0,0,0,32.125,11.545Zm-13.3-1.215a2.741,2.741,0,0,1-2.812-3c.016-1.905,1.351-3.5,2.9-3.46,1.512.039,2.746,1.61,2.746,3.5A2.7,2.7,0,0,1,18.821,10.329Z" transform="translate(11.18 17)"/>
      </g>
    </g>
  </g>
</svg>
